<?xml version="1.0" encoding="UTF-8"?>
<svg version="1.1" xmlns="http://www.w3.org/2000/svg" width="1024" height="1024">
<path d="M0 0 C337.92 0 675.84 0 1024 0 C1024 337.92 1024 675.84 1024 1024 C686.08 1024 348.16 1024 0 1024 C0 686.08 0 348.16 0 0 Z " fill="#FEF5E6" transform="translate(0,0)"/>
<path d="M0 0 C2.91980877 0.0107024 5.83899903 0.00005058 8.75878906 -0.01269531 C24.69316163 -0.02573283 40.17609749 1.26227088 55.80566406 4.44824219 C56.8564917 4.66182373 57.90731934 4.87540527 58.98999023 5.09545898 C82.56963602 10.09344386 105.31444741 18.93388355 126.55566406 30.26074219 C127.2045459 30.60186035 127.85342773 30.94297852 128.52197266 31.29443359 C153.09168565 44.28413411 177.97591794 62.60792708 195.78222656 84.12011719 C197.19791414 85.8289207 198.66208141 87.49752291 200.14160156 89.15136719 C241.59678472 135.64491741 263.83172634 196.78531166 263.74316406 258.76074219 C263.74222748 259.60689087 263.74129089 260.45303955 263.74032593 261.3248291 C263.71054312 273.73501875 263.55006554 285.98452339 261.55566406 298.26074219 C261.3996875 299.23269531 261.24371094 300.20464844 261.08300781 301.20605469 C252.23259904 354.57074167 228.79774227 399.03371443 194.65332031 440.47949219 C191.64602459 444.13288293 188.71668028 447.84292731 185.80566406 451.57324219 C181.91063018 456.55794164 177.94570898 461.47652092 173.92675781 466.36230469 C167.69567596 473.97921199 161.56391237 481.67828906 155.50830078 489.43530273 C150.36127066 496.027628 145.0838702 502.49989787 139.74975586 508.94165039 C135.64448262 513.90989061 131.63039638 518.93918302 127.66894531 524.02246094 C124.18712429 528.48163522 120.63318334 532.8780845 117.05566406 537.26074219 C113.00584339 542.22306463 108.99761213 547.21228239 105.05566406 552.26074219 C100.57366296 558.00084886 95.99609849 563.65767465 91.39160156 569.29980469 C87.90036323 573.58525837 84.45747518 577.90403672 81.05566406 582.26074219 C76.57366296 588.00084886 71.99609849 593.65767465 67.39160156 599.29980469 C63.90036323 603.58525837 60.45747518 607.90403672 57.05566406 612.26074219 C52.57655139 617.99714965 48.00221729 623.6505626 43.40039062 629.28881836 C39.82180642 633.6811526 36.29512848 638.10985906 32.80566406 642.57324219 C31.47675551 644.26746348 30.14711572 645.96110604 28.81689453 647.65429688 C27.5940159 649.21189297 26.37362722 650.77144294 25.15332031 652.33105469 C14.23064087 666.03574992 14.23064087 666.03574992 7.55566406 668.26074219 C1.03068171 668.68860988 -3.02467927 668.14963175 -8.20605469 663.77246094 C-13.54856007 658.7117104 -17.97315146 652.91368004 -22.45605469 647.10449219 C-25.55069906 643.10026287 -28.74083394 639.17807828 -31.94433594 635.26074219 C-35.97691806 630.32171602 -39.96245311 625.35253874 -43.88183594 620.32324219 C-47.98371517 615.06318529 -52.19011631 609.89823855 -56.44433594 604.76074219 C-61.15731026 599.06924278 -65.78886438 593.32749773 -70.33105469 587.49902344 C-73.81287571 583.03984915 -77.36681666 578.64339987 -80.94433594 574.26074219 C-85.45200808 568.73740562 -89.89276361 563.16889622 -94.28027344 557.54980469 C-97.78209841 553.0763751 -101.35244758 548.66207017 -104.94433594 544.26074219 C-109.45193566 538.73734534 -113.89276235 533.16889783 -118.28027344 527.54980469 C-121.78209841 523.0763751 -125.35244758 518.66207017 -128.94433594 514.26074219 C-133.45193566 508.73734534 -137.89276235 503.16889783 -142.28027344 497.54980469 C-146.32000227 492.38922624 -150.45577643 487.30977815 -154.59960938 482.23266602 C-158.17817757 477.84035142 -161.70574085 473.4122891 -165.19433594 468.94824219 C-168.38130655 464.87035164 -171.59619217 460.8226434 -174.88183594 456.82324219 C-189.55640221 438.95403583 -204.12602809 420.86368221 -216.44433594 401.26074219 C-217.0442334 400.31013916 -217.0442334 400.31013916 -217.65625 399.34033203 C-237.39087666 367.75399173 -251.13994072 331.36933693 -255.44433594 294.26074219 C-255.53714844 293.47473633 -255.62996094 292.68873047 -255.72558594 291.87890625 C-256.69263534 282.24640343 -256.66579418 272.5819166 -256.68457031 262.91064453 C-256.69420341 259.92679168 -256.72527815 256.94365095 -256.75683594 253.95996094 C-256.8547187 236.31757219 -255.0736133 219.02460066 -250.75683594 201.88574219 C-250.50119873 200.85521729 -250.24556152 199.82469238 -249.98217773 198.76293945 C-240.30812477 160.85968275 -223.08203958 125.66549349 -198.44433594 95.26074219 C-197.99896484 94.71095703 -197.55359375 94.16117187 -197.09472656 93.59472656 C-185.87831352 79.87874616 -173.50176525 67.07572795 -159.44433594 56.26074219 C-158.48914063 55.48859375 -157.53394531 54.71644531 -156.54980469 53.92089844 C-121.76228239 26.22215427 -79.32099762 8.69087911 -35.44433594 2.26074219 C-34.31302246 2.08269043 -33.18170898 1.90463867 -32.01611328 1.72119141 C-21.33095992 0.18578814 -10.78540535 -0.04687739 0 0 Z " fill="#426F63" transform="translate(508.4443359375,175.7392578125)"/>
<path d="M0 0 C2.80119316 0.0161283 5.60094863 0.00001082 8.40209961 -0.01904297 C24.3279453 -0.03848121 39.65850157 1.91700936 55.04858398 6.07861328 C56.00313477 6.33497559 56.95768555 6.59133789 57.94116211 6.85546875 C94.9166037 17.07172735 126.18146322 35.99831771 153.73608398 62.39111328 C154.86143555 63.45458984 154.86143555 63.45458984 156.00952148 64.53955078 C161.40635528 69.76573371 166.07543518 75.50889208 170.73608398 81.39111328 C171.90977539 82.82197266 171.90977539 82.82197266 173.10717773 84.28173828 C193.29099632 109.47114387 206.27322174 139.49184943 213.61108398 170.76611328 C213.80226807 171.57169678 213.99345215 172.37728027 214.19042969 173.20727539 C217.43811223 188.0451895 218.11997025 203.12726244 218.04858398 218.26611328 C218.04642883 219.09661194 218.04427368 219.9271106 218.04205322 220.78277588 C217.99042655 233.21346413 217.53125052 245.23321668 214.73608398 257.39111328 C214.50550293 258.41527344 214.27492188 259.43943359 214.03735352 260.49462891 C212.80215206 265.89519103 211.51451507 271.28245202 210.13842773 276.64892578 C209.91662842 277.51662598 209.6948291 278.38432617 209.46630859 279.27832031 C208.73608398 281.39111328 208.73608398 281.39111328 206.73608398 283.39111328 C206.44475586 282.65248047 206.15342773 281.91384766 205.85327148 281.15283203 C201.20979457 269.66095677 195.91203686 259.7604005 187.73608398 250.39111328 C187.2165918 249.77623047 186.69709961 249.16134766 186.16186523 248.52783203 C173.8474169 235.03467075 153.75445962 226.4087624 135.73608398 225.39111328 C134.60944336 225.32666016 133.48280273 225.26220703 132.32202148 225.19580078 C107.09483754 224.44943439 84.36604221 234.03970075 66.00170898 251.21923828 C65.25405273 251.93595703 64.50639648 252.65267578 63.73608398 253.39111328 C63.02967773 254.04595703 62.32327148 254.70080078 61.59545898 255.37548828 C58.43208396 258.38455233 56.68972189 260.0795174 55.73608398 264.39111328 C56.21440674 264.69815186 56.69272949 265.00519043 57.18554688 265.3215332 C59.3910676 266.73874062 61.59483045 268.1586596 63.79858398 269.57861328 C64.55075195 270.06136719 65.30291992 270.54412109 66.07788086 271.04150391 C70.72502111 274.03900995 75.26185144 277.14090717 79.73608398 280.39111328 C79.92170898 279.71048828 80.10733398 279.02986328 80.29858398 278.32861328 C86.15714717 266.35676677 100.99683988 259.40282377 112.96655273 255.27783203 C127.51265824 251.85610566 142.89840814 254.00776848 155.61108398 261.76611328 C157.33697919 262.94922695 159.04723145 264.15569864 160.73608398 265.39111328 C161.39350586 265.86419922 162.05092773 266.33728516 162.72827148 266.82470703 C172.67429164 274.62680729 178.99299557 287.00819108 180.73608398 299.39111328 C181.03130741 304.03863603 181.13275581 308.68330034 181.19604492 313.33862305 C181.22258351 314.82332744 181.26343538 316.30784987 181.3190918 317.79174805 C181.70209561 328.163999 180.47211442 335.06827299 173.73608398 343.39111328 C172.9586158 344.50851541 172.18560693 345.62905157 171.41967773 346.75439453 C165.42356834 354.62754687 158.71612387 361.70180903 151.73608398 368.70361328 C150.82270264 369.62247314 149.90932129 370.54133301 148.96826172 371.48803711 C142.85873106 377.5342396 136.47881709 383.06458789 129.73608398 388.39111328 C129.03354492 388.95209717 128.33100586 389.51308105 127.60717773 390.09106445 C125.82308528 391.51179003 124.0315493 392.92230272 122.23608398 394.32861328 C121.34663086 395.02954102 121.34663086 395.02954102 120.43920898 395.74462891 C113.18698924 401.43696805 113.18698924 401.43696805 109.04858398 401.01611328 C107.40889648 400.70673828 107.40889648 400.70673828 105.73608398 400.39111328 C105.71421021 399.12388428 105.71421021 399.12388428 105.69189453 397.83105469 C105.04718224 364.34702186 101.65752195 334.62763526 78.73608398 308.39111328 C78.17405273 307.69759766 77.61202148 307.00408203 77.03295898 306.28955078 C65.23560525 292.01144509 48.22490394 282.76402264 30.73608398 277.39111328 C29.65069336 277.05080078 28.56530273 276.71048828 27.44702148 276.35986328 C2.00866074 269.92580483 -26.56167907 273.4482949 -49.25805664 286.54150391 C-74.19277219 301.68830364 -90.86172474 325.13963209 -98.53735352 353.17236328 C-99.94846562 359.42374162 -100.42064795 365.50108195 -100.51000977 371.87939453 C-100.54290127 373.48812489 -100.57611358 375.09684872 -100.60961914 376.70556641 C-100.65727153 379.21830416 -100.70183989 381.73100697 -100.74072266 384.24389648 C-100.78027719 386.68514565 -100.8318006 389.12591026 -100.88500977 391.56689453 C-100.89342392 392.32206863 -100.90183807 393.07724274 -100.9105072 393.8553009 C-101.03708571 399.16428297 -101.03708571 399.16428297 -103.26391602 401.39111328 C-107.09113111 401.93475179 -108.86314513 401.63200217 -112.20141602 399.62548828 C-113.21204102 398.80564453 -114.22266602 397.98580078 -115.26391602 397.14111328 C-115.81861572 396.69582275 -116.37331543 396.25053223 -116.94482422 395.79174805 C-118.73410911 394.34344622 -120.50112183 392.87151578 -122.26391602 391.39111328 C-122.85865723 390.89401855 -123.45339844 390.39692383 -124.06616211 389.88476562 C-128.17572521 386.43620455 -132.22884764 382.92632804 -136.26391602 379.39111328 C-137.12629883 378.64216797 -137.98868164 377.89322266 -138.87719727 377.12158203 C-141.37760735 374.91581928 -143.82924407 372.6692966 -146.26391602 370.39111328 C-146.78421387 369.90481445 -147.30451172 369.41851563 -147.84057617 368.91748047 C-175.88307681 342.46839564 -175.88307681 342.46839564 -177.79736328 328.49804688 C-177.83010942 327.09555406 -177.84011461 325.69239166 -177.83032227 324.28955078 C-177.83962013 323.15206894 -177.83962013 323.15206894 -177.84910583 321.99160767 C-177.85617307 320.39318108 -177.8530843 318.7946804 -177.84033203 317.19628906 C-177.82656622 314.79234457 -177.86045471 312.39238018 -177.89868164 309.98876953 C-177.97562575 294.66253266 -173.45329453 281.54912796 -163.08422852 269.95361328 C-151.42560724 258.6390169 -137.52244673 253.95488245 -121.55664062 254.02758789 C-105.29286141 254.38111415 -91.59150446 261.99167967 -80.26391602 273.39111328 C-76.26391602 277.87891816 -76.26391602 277.87891816 -76.26391602 280.39111328 C-75.77511963 280.04330811 -75.28632324 279.69550293 -74.78271484 279.3371582 C-72.54861935 277.74908535 -70.31253947 276.16382918 -68.07641602 274.57861328 C-67.30749023 274.03140625 -66.53856445 273.48419922 -65.74633789 272.92041016 C-55.11405806 265.39111328 -55.11405806 265.39111328 -52.26391602 265.39111328 C-53.48864985 260.90042254 -54.88220392 258.5473779 -58.26391602 255.39111328 C-58.26391602 254.73111328 -58.26391602 254.07111328 -58.26391602 253.39111328 C-58.83368164 253.14619141 -59.40344727 252.90126953 -59.99047852 252.64892578 C-62.6534844 251.17557889 -64.46514279 249.39537238 -66.63891602 247.26611328 C-83.58463819 231.80903434 -107.18872574 224.3987163 -129.84985352 225.11376953 C-146.49000413 225.98443308 -162.31558484 231.86921555 -175.26391602 242.39111328 C-176.5072168 243.39078125 -176.5072168 243.39078125 -177.77563477 244.41064453 C-188.56541345 253.58113024 -194.99400927 264.04924329 -200.63500977 276.80126953 C-202.26391602 280.39111328 -202.26391602 280.39111328 -204.26391602 283.39111328 C-222.44909503 230.02804698 -217.74176907 171.85647257 -193.61157227 121.07470703 C-177.93675494 89.2317399 -154.02245598 61.13882452 -125.26391602 40.39111328 C-124.71606445 39.99214844 -124.16821289 39.59318359 -123.60375977 39.18212891 C-101.80980576 23.48138014 -76.96917723 12.65725314 -51.01391602 6.01611328 C-50.12969971 5.78939941 -49.2454834 5.56268555 -48.33447266 5.32910156 C-32.31902781 1.49577852 -16.44398883 -0.11210831 0 0 Z " fill="#FEF5E6" transform="translate(510.263916015625,219.60888671875)"/>
<path d="M0 0 C1.22726807 0.01023193 2.45453613 0.02046387 3.71899414 0.03100586 C13.07927256 0.25001416 20.62247466 1.4473615 29.125 5.5625 C30.78789063 6.30693359 30.78789063 6.30693359 32.484375 7.06640625 C41.06842738 11.24760547 47.48196548 16.85255722 54.125 23.5625 C54.86621094 24.28179688 55.60742188 25.00109375 56.37109375 25.7421875 C69.52649194 39.33353456 74.68414578 57.50795343 74.9375 76.03515625 C74.95446426 77.0175871 74.95446426 77.0175871 74.97177124 78.01986504 C75.03102855 81.4779038 75.06840212 84.93530466 75.0859375 88.39379883 C75.10356059 91.21847053 75.15946537 94.03830837 75.25 96.86157227 C76.06521347 122.80192573 76.06521347 122.80192573 70.14341736 129.95887756 C67.63101139 132.44573017 64.99099297 134.48601632 62.125 136.5625 C60.75038732 137.85758087 59.39148124 139.16982691 58.05859375 140.5078125 C56.89753552 141.57242397 55.73226036 142.63245758 54.5625 143.6875 C50.00392952 147.86701829 45.52693855 152.09304543 41.1875 156.5 C37.62468167 160.09960259 34.008224 163.53898435 30.14453125 166.8125 C28.64975312 168.10778163 27.19422146 169.44866271 25.76171875 170.8125 C16.49095741 179.57863203 9.7761826 183.14161456 -3.1640625 183.03125 C-10.97008873 182.04522563 -16.10779039 179.1010746 -21.875 173.875 C-22.48166504 173.34044189 -23.08833008 172.80588379 -23.71337891 172.25512695 C-27.60074326 168.80078941 -31.34333487 165.22743415 -34.95361328 161.4831543 C-36.76855538 159.66890405 -38.64001653 158.00217376 -40.59375 156.33984375 C-44.93728123 152.56840934 -48.97320693 148.54188061 -53 144.4375 C-58.27493834 139.04908336 -58.27493834 139.04908336 -63.9296875 134.0703125 C-73.32622446 126.06954761 -73.32622446 126.06954761 -74.5166626 120.63110352 C-74.75013941 117.12980707 -74.7668065 113.69208064 -74.69921875 110.18359375 C-74.69880081 108.89872574 -74.69838287 107.61385773 -74.69795227 106.29005432 C-74.69474746 103.57543025 -74.66796537 100.86243711 -74.62280273 98.14819336 C-74.56652274 94.71410346 -74.55828068 91.28204662 -74.56567574 87.84757328 C-74.59888101 62.73965227 -71.178133 42.7353232 -53.875 23.5625 C-53.24980469 22.85609375 -52.62460937 22.1496875 -51.98046875 21.421875 C-46.93644084 16.03883911 -41.24399973 12.23547772 -34.875 8.5625 C-34.20726562 8.17191406 -33.53953125 7.78132812 -32.8515625 7.37890625 C-22.484594 1.75799717 -11.67839917 -0.14750135 0 0 Z " fill="#99BFAA" transform="translate(511.875,521.4375)"/>
<path d="M0 0 C11.25165759 8.37123325 18.99431092 20.23336166 22 34 C22.88606586 51.0397281 21.06881139 65.22698244 9.671875 78.765625 C-1.17522707 90.15849321 -13.77928707 96.01343768 -29.625 96.5 C-44.97417638 96.03825092 -57.53029607 88.88063088 -68 78 C-78.39703077 65.44637988 -81.27653777 50.84129048 -80 35 C-77.26425815 20.69682794 -69.65677982 8.15940404 -57.6875 -0.3125 C-39.13005044 -11.79267969 -18.36095443 -12.17621189 0 0 Z " fill="#426F62" transform="translate(541,381)"/>
<path d="M0 0 C5.67831336 4.37721273 10.11344914 8.98211479 14 15 C11.59994735 17.41701415 9.19472101 19.81724137 6.7109375 22.1484375 C-22.46416696 49.95748356 -31.60987173 85.8899277 -33 125 C-36.69186108 122.92783641 -39.7061081 120.62052693 -42.8125 117.75 C-45.7314908 115.07069173 -48.65805999 112.42819616 -51.6875 109.875 C-86.29330149 79.45538417 -86.29330149 79.45538417 -88.53344727 63.10693359 C-88.56619341 61.70444078 -88.5761986 60.30127837 -88.56640625 58.8984375 C-88.57260483 58.14011627 -88.57880341 57.38179504 -88.58518982 56.60049438 C-88.59225706 55.0020678 -88.58916828 53.40356712 -88.57641602 51.80517578 C-88.56265021 49.40123129 -88.5965387 47.00126689 -88.63476562 44.59765625 C-88.71170974 29.27141938 -84.18937851 16.15801468 -73.8203125 4.5625 C-53.10532399 -15.54122655 -23.2391507 -15.99113586 0 0 Z " fill="#99BEAA" transform="translate(421,485)"/>
<path d="M0 0 C1.72589521 1.18311367 3.43614746 2.38958536 5.125 3.625 C5.78242187 4.09808594 6.43984375 4.57117188 7.1171875 5.05859375 C17.06320766 12.86069401 23.38191158 25.2420778 25.125 37.625 C25.42022343 42.27252275 25.52167182 46.91718705 25.58496094 51.57250977 C25.61149952 53.05721416 25.6523514 54.54173659 25.70800781 56.02563477 C26.09101163 66.39788572 24.86103044 73.30215971 18.125 81.625 C17.34753182 82.74240213 16.57452294 83.86293829 15.80859375 84.98828125 C9.81248435 92.86143359 3.10503988 99.93569575 -3.875 106.9375 C-4.78838135 107.85635986 -5.7017627 108.77521973 -6.64282227 109.72192383 C-22.33986892 125.25626318 -22.33986892 125.25626318 -29.875 128.625 C-29.89481934 128.04234375 -29.91463867 127.4596875 -29.93505859 126.859375 C-31.41893594 85.14684491 -42.19534227 51.64079939 -73.1875 22.5625 C-74.074375 21.593125 -74.96125 20.62375 -75.875 19.625 C-75.4739314 14.49337864 -71.37398067 11.0312515 -67.875 7.625 C-48.47462597 -8.68212554 -22.32077508 -13.62201564 0 0 Z " fill="#99BEA9" transform="translate(665.875,481.375)"/>
<path d="M0 0 C11.69704328 6.66714588 19.23317337 16.11044664 23.64453125 28.86328125 C25.87544422 42.27327463 23.97846985 55.63385217 16.25 66.9375 C8.58572838 76.68045784 -2.58669072 83.48212466 -15 85 C-27.25601907 86.21997127 -39.23625038 82.48609962 -49 75 C-57.97443596 66.92461308 -64.18041927 55.58164385 -65.21484375 43.48828125 C-65.70556506 29.72845577 -61.1984887 18.43425708 -52 8.3125 C-38.33154012 -4.81948449 -17.07296616 -8.44924895 0 0 Z " fill="#FD8643" transform="translate(532,261)"/>
<path d="M0 0 C9.01785704 6.70558601 15.90826971 16.11141411 18.15234375 27.23828125 C19.6376314 42.17873369 17.42088519 54.12217587 8.15234375 66.23828125 C0.79732552 74.34100881 -9.48366219 79.54004146 -20.390625 80.57421875 C-34.8744854 80.72945841 -45.3601862 76.99484438 -56.0703125 67.20703125 C-64.94857945 58.04665114 -68.1391872 46.96575944 -68.16455078 34.51928711 C-67.97832825 24.33107519 -64.06303662 16.19275832 -57.84765625 8.23828125 C-57.36941406 7.62210937 -56.89117187 7.0059375 -56.3984375 6.37109375 C-42.19191928 -9.73201255 -17.51834942 -10.8378266 0 0 Z " fill="#426F62" transform="translate(416.84765625,353.76171875)"/>
<path d="M0 0 C8.16128506 6.32889462 15.31332405 16.58229561 17 27 C18.04761158 42.25047673 15.16876203 53.79429732 5.48046875 65.8984375 C-1.49327671 73.66966723 -12.2759181 78.36869973 -22.578125 79.3359375 C-35.61693358 79.47464823 -47.14821822 76.10180652 -57.00390625 67.1875 C-66.74295051 56.75431219 -69.71531907 44.47514405 -69.375 30.58984375 C-68.7828893 20.36959009 -64.20284235 11.18922639 -57 4 C-40.34775923 -10.73184018 -18.46376331 -12.3536451 0 0 Z " fill="#426E62" transform="translate(658,355)"/>
<path d="M0 0 C0.33 0 0.66 0 1 0 C1.36359522 3.79082504 1.71427657 7.58273449 2.0625 11.375 C2.16626953 12.45523438 2.27003906 13.53546875 2.37695312 14.6484375 C2.47041016 15.6796875 2.56386719 16.7109375 2.66015625 17.7734375 C2.74918213 18.72653809 2.83820801 19.67963867 2.92993164 20.66162109 C3 23 3 23 2 25 C1.34 25 0.68 25 0 25 C0 16.75 0 8.5 0 0 Z " fill="#84B29D" transform="translate(636,585)"/>
<path d="M0 0 C0 3 0 3 -1.9765625 5.3046875 C-2.85054687 6.15289063 -3.72453125 7.00109375 -4.625 7.875 C-5.5325 8.75671875 -6.44 9.6384375 -7.375 10.546875 C-10.16994208 13.15881492 -12.99860681 15.63047906 -16 18 C-16.66 17.67 -17.32 17.34 -18 17 C-12.18590512 11.09128152 -6.41069287 5.27101414 0 0 Z " fill="#366359" transform="translate(553,677)"/>
<path d="M0 0 C0.33 0.66 0.66 1.32 1 2 C-0.375 4 -0.375 4 -2 6 C-2.66 6 -3.32 6 -4 6 C-2.82255415 9.53233755 -2.04394359 9.86308075 1.0625 11.6875 C1.79597656 12.12449219 2.52945313 12.56148438 3.28515625 13.01171875 C3.85105469 13.33785156 4.41695312 13.66398437 5 14 C4.01 14.495 4.01 14.495 3 15 C0.03 13.02 -2.94 11.04 -6 9 C-4.22157001 4.55392503 -3.35585467 3.0202692 0 0 Z " fill="#2A5B4E" transform="translate(571,475)"/>
<path d="M0 0 C0.33 0.66 0.66 1.32 1 2 C-3.16704183 6.85743929 -7.41844996 11.53019508 -12 16 C-12.66 15.67 -13.32 15.34 -14 15 C-13.40832031 14.41992188 -12.81664062 13.83984375 -12.20703125 13.2421875 C-7.90148281 8.98580519 -3.76799131 4.74037617 0 0 Z " fill="#356258" transform="translate(586,644)"/>
<path d="M0 0 C0.99 0.33 1.98 0.66 3 1 C0.03 3.97 -2.94 6.94 -6 10 C-6.99 9.67 -7.98 9.34 -9 9 C-6.03 6.03 -3.06 3.06 0 0 Z " fill="#EFEFE5" transform="translate(360,281)"/>
<path d="M0 0 C0.33 0.66 0.66 1.32 1 2 C-8.41002278 4.48063781 -8.41002278 4.48063781 -13 3 C-9.25711729 -0.74288271 -5.09766283 -0.09803198 0 0 Z " fill="#38675B" transform="translate(462,181)"/>
<path d="M0 0 C0.66 0.33 1.32 0.66 2 1 C0.44716875 2.63424183 -1.1176881 4.25706248 -2.6875 5.875 C-3.55761719 6.77992188 -4.42773438 7.68484375 -5.32421875 8.6171875 C-7.87943979 10.89263982 -9.76901814 11.98704352 -13 13 C-9.57338216 8.28840047 -5.40481284 4.74963472 -1 1 C-0.67 0.67 -0.34 0.34 0 0 Z " fill="#356258" transform="translate(658,591)"/>
<path d="M0 0 C0.66 0 1.32 0 2 0 C2 2.31 2 4.62 2 7 C1.67 7 1.34 7 1 7 C0.67 8.98 0.34 10.96 0 13 C-0.33 13 -0.66 13 -1 13 C-1.02686553 11.02090602 -1.04633375 9.04171029 -1.0625 7.0625 C-1.07410156 5.96035156 -1.08570313 4.85820312 -1.09765625 3.72265625 C-1 1 -1 1 0 0 Z " fill="#497468" transform="translate(294,418)"/>
<path d="M0 0 C2.64 0 5.28 0 8 0 C8.33 0.66 8.66 1.32 9 2 C5.52674819 3.1577506 2.63932552 3.06866652 -1 3 C-0.67 2.01 -0.34 1.02 0 0 Z " fill="#4A7468" transform="translate(489,176)"/>
<path d="M0 0 C0.33 0 0.66 0 1 0 C1.66 4.29 2.32 8.58 3 13 C2.01 13.33 1.02 13.66 0 14 C0 9.38 0 4.76 0 0 Z " fill="#90B5A2" transform="translate(636,596)"/>
<path d="M0 0 C1.32 0 2.64 0 4 0 C3.34 2.31 2.68 4.62 2 7 C0 4 0 4 0 0 Z " fill="#F2F2EB" transform="translate(716,496)"/>
</svg>
